# xmcd
#
# Track frame offsets:
#	150
#	20515
#	48988
#	72748
#	99498
#	124950
#	140181
#	155329
#	179106
#
# Disc length: 2633 seconds
#
# Revision: 0
# Processed by: cddbd v1.5.2PL0 Copyright (c) Steve Scherf et al.
# Submitted via: EZCDAudioConverter 8.5.0.1
#
DISCID=8a0a4709
DTITLE=Nandha Blues - Nandha strikes again
DYEAR=2019
DGENRE=
TTITLE0=749 Blues
TTITLE1=Last Note
TTITLE2=What you got
TTITLE3=Bring me some Water
TTITLE4=Something left behind
TTITLE5=Cajun Lady
TTITLE6=Busted
TTITLE7=I'd rather walk with the devil
TTITLE8=The mouth of the lion
EXTD=
EXTT0=
EXTT1=
EXTT2=
EXTT3=
EXTT4=
EXTT5=
EXTT6=
EXTT7=
EXTT8=
PLAYORDER=
